<?xml version="1.0" encoding="UTF-8"?>
<svg xmlns="http://www.w3.org/2000/svg" width="1366" height="752" viewBox="0 0 1366 752">
  <polygon fill="#DF1043" points="524,20.9 526.6,20.8 528.2,45.8 525.6,45.9 "></polygon>
  <g>
    <path fill="#2F3782" d="M458,365.9c-4.8,4.1-11.5,17.9-19.9,41.6   c-8.4,23.7-16.5,50.5-24,80.5c-3.5,12.7-6.5,26.3-9,40.9c-2.5,14.6-4.4,28.1-5.5,40.5c-1.2,12.4-4,19.9-8.4,22.4   c-4.5,2.5-17.6,4.8-39.3,7c-5.7,0.6-9.6,1-11.6,1.2c-12.4,1.2-20,1.2-22.7,0c-2.2-0.8-5.8-6.1-10.9-15.8l-28.6-61l-5.8-11   l-13.6-27.1l-12.2,44.3c-9.2,34.8-16.1,57.4-20.5,67.8c-4.5,10.4-9.6,16-15.3,16.5c-11.4,1.1-19.4,1.9-24.1,2.4   c-22.8,2.3-36.7,2.5-41.9,0.7c-5.1-1.8-10.4-8.8-15.7-21.1l-9-19.9l-7.9-16.9L96,523l-30.9-69.2l-1.8-2.9   c-7.5-18.7-12-29.3-13.2-31.7c-3.8-6.8-14.8-15.4-33.1-25.9l-5-2.6c-1.1-0.4-2.3-1.8-3.5-4.3c-1.9-3.4-3.1-8.1-3.7-14.2   c-2.3-13.1,1.2-21.9,10.4-26.4c9.2-4.5,32.2-8.6,69-12.3c23.8-2.4,39.7-3,47.7-1.7c8,1.3,13.7,4.4,17.4,9.4c3.6,5,5.6,9.6,6,13.6   c0.7,7.1-7.7,23.3-25.1,48.7c-0.9,1.1-0.7,3.4,0.7,6.9c0.8,2.5,4.5,11.6,11.2,27.3l14.1,32.4l1,2.2c4.5,8.8,7.6,15,9.2,18.7   c1.7,3.7,6.2,11,13.5,22.1l7-33l1.2-4c5.4-19.5,9.1-33,11-40.3c5.1-17.9,7.3-30,6.7-36.1c-0.6-6.6-4.4-13.7-11.4-21.2   c-8-7.4-14.4-13.4-19-18.1c-1.8-2.4-2.8-5.1-3.1-8.1c-0.3-3.6,0.9-8.3,3.7-14.2c2.8-5.9,10-10.5,21.4-13.7   c11.5-3.2,33.7-6.5,66.9-9.8c17.1-1.7,28.3-2.3,33.5-1.8c5.3,0.5,10.2,2.3,14.6,5.5c7.4,5.9,11.4,12.4,12.1,19.6   c1,10.7-5.2,22.1-18.7,34.2c-4.8,4.1-6.9,10.2-6.1,18.3c0.7,7.1,3,15.2,7,24.3c4,9.1,10.7,21.6,20.1,37.6l23.3,38.4l6.8-26.8   c5.8-21.1,11.6-42.4,17.4-64c1.9-7.9,2.5-14.4,2.1-19.4c-0.6-6.1-3.5-11.7-8.7-16.8c-9.1-7.8-17.4-14.9-24.8-21.4   c-2.3-1.8-3.6-4.8-4-8.8c-0.6-6.1,2.9-12.9,10.6-20.3c3.3-3.4,11.4-6.4,24.2-9c12.8-2.6,29.3-4.9,49.5-6.9   c21.7-2.2,37.6-0.6,47.5,4.8c9.9,5.4,14.9,13.3,14.8,23.5c-0.3,7.7-2.1,13.9-5.3,18.6C477,348.8,469.6,356.1,458,365.9"></path>
    <path fill="#DF1043" d="M657.1,291.8c38.6-68.5,46.1-103.4,35.8-149.4   C676,71.1,605.9,49,560.5,52.1c-28.8,1.7-96.3,17.4-115.5,90.5c-9.8,39.2-7.4,75.7,48.4,154.3c4.8,6.7,9.2,12,13.2,16   c8.2,2.9,31.1,12.2,65.3,10.4C610.1,321.4,640.6,304.6,657.1,291.8 M568.4,85c47.7,0,86.4,38.7,86.4,86.4   c0,47.7-38.7,86.4-86.4,86.4c-47.7,0-86.4-38.7-86.4-86.4C482,123.6,520.7,85,568.4,85"></path>
    <path fill="#DF1043" d="M570.8,185.6c7.8,0,14.1-6.3,14.1-14.1   c0-7.8-6.3-14.1-14.1-14.1c-7.8,0-14.1,6.3-14.1,14.1C556.7,179.3,563.1,185.6,570.8,185.6"></path>
    <path fill="#DF1043" d="M682.9,71c2.6-0.2,7.4-0.5,7.9-0.6   c-2.4-3-47.6-66.3-134.4-62.3c-86.8,4-161.7,77.3-153.8,174.7c7.7,90.3,80.1,128.8,104.5,137.2l-2.2-7.7   c-12.1-4.6-86.2-36.5-95.7-130C401.6,74.8,485.3,17.1,557.8,14.4C619.1,13,658.4,42.2,682.9,71"></path>
    <rect x="413.3" y="179.8" transform="matrix(0.998 -6.337641e-02 6.337641e-02 0.998 -10.6203 27.3538)" fill="#DF1043" width="25" height="2.5"></rect>
    <path fill="#DF2A14" d="M1337.3,407.2c-14,11.4-23.8,21.9-29.4,31.5   c-5.6,9.7-21.9,41.8-49.1,96.4l-13.3,27.1c-36.7,69-63.5,114-80.4,135.1c-16.9,21.1-38.1,35.1-63.4,42.2l-23,5.3   c-12.4,1.3-22.9,1.4-31.3,0.5c-13.8-1.4-27-5.4-39.7-11.9c-15.6-8.8-27.2-18.1-34.8-27.9c-7.5-9.8-12.2-21.4-14-35   c-0.7-3.7-0.7-9,0.1-16.2c1.4-13.2,7-23.6,16.9-31.3c9.9-7.7,21.7-10.8,35.5-9.3c15.3,1.6,27.4,11.4,36.2,29.2l9.6,23.3   c0.6,4.2,4.1,6.6,10.5,7.3c3.7,0.4,8.6-0.5,14.7-2.7c6.1-2.2,12.5-6.5,19-13c6.6-6.5,13.4-15.8,20.6-27.9l6.1-12.4L1089.9,502   c-11-33-21.9-65.9-32.9-98.9c-4.6-11.8-15.1-24.2-31.4-37.2c-6.4-5.3-8.8-15-7.4-29.3c2.4-12.6,9-19.4,19.8-20.6   c10.8-1.2,39.2,0.7,85.3,5.5l5.5,1.3l19.1,1.2c10.6,1.1,18.6,3.8,24,7.9c9.6,5.6,13.8,13.5,12.8,23.7c-0.5,4.6-1.9,8-4.3,10.3   l-19.6,18.7c-11.2,10.1-17.2,18.7-18,25.8c-0.7,7.1,6.5,29.9,21.7,68.5l15.5,43.2l15.6-26.1c24.8-42.5,37.7-68.9,38.8-79   c1.1-10.7-7.6-29-26.3-55.1c-1.3-2.7-1.8-5.3-1.6-7.9c0.7-7.1,5.4-12.8,13.8-17c4-2.1,10.5-2.7,19.4-1.8l7.9,0.8l65.1,6.8l28.5,3.8   c6.8,1.2,12.3,5.1,16.4,11.7c4.1,6.6,5.3,13.1,3.6,19.6c-0.9,3.5-3.5,7.7-7.8,12.7C1349.2,395.8,1343.8,401.2,1337.3,407.2"></path>
    <path fill="#508D32" d="M955.3,605.3c-18-0.6-30.4-2.4-37.3-5.2   c-6.9-2.8-10.7-8.3-11.6-16.5c-0.7-7.1,1.3-17.6,6.2-31.5c0.7-3.2,1-5.8,0.8-7.8c-0.7-6.6-3.7-14-9-22.1   c-5.3-8.1-15.1-19.7-29.3-34.6c-6.6-8-18.9-16.9-36.8-26.8l-8.4-4.5l7.9,45.3l3.6,34.3c0,4.6,2.8,9.6,8.7,14.8   c5.8,5.3,18.5,13.3,38.1,24c2.8,1.2,4.4,3.9,4.8,8c0.6,6.1-1.4,12.2-6,18.4c-4.6,6.1-14.3,10.8-29,13.9   c-14.7,3.1-41.8,6.8-81.4,11.1c-9.4,1-17.3,1.6-23.9,1.8c-6.6,0.2-12.3-0.5-17.2-2c-10.8-2.9-16.8-10-18-21.1   c-0.5-4.6,0.4-9,2.5-13.4l13.9-18.4c11.8-12.6,18.4-22.5,19.8-29.8l-5.1-56.4l-2.7-33.6l-5.9-48.6l-2.8-26.6l-6.3-52.4l-0.9-8.4   l-3.3-31.2c-9.8,2.1-18.9,0.5-27.4-4.7c-10.7-6.5-16.5-14.6-17.6-24.3c-0.5-5.1,0.6-9.8,3.3-14.2l16.7-21.8   c12.3-13.1,23.7-23.9,34.2-32.2c10.5-8.3,18-13.1,22.6-14.4c4.6-1.3,7.7-2,9.3-2.2c2.6-0.3,4.4-0.5,5.5-0.6   c12.5-1.4,21.3,5,26.5,19.1c5.2,14.1,10,42.7,14.5,85.8l8.4,79.9l1,9.9L827,399l21.7-26.2l13.9-17.7l9-12.5   c4.6-6.7,12.1-13.9,22.6-21.7c10.5-7.8,22.4-13.6,35.7-17.3c13.3-3.7,24.4-6.1,33.2-7.1c13-1.4,23.5,1.4,31.3,8.5   c7.9,7.1,12.3,15.5,13.3,25.1c1.5,14.7-3.2,25-14.2,30.8c-4,2.5-9.2,5.1-15.8,7.9c-6.6,2.8-18.5,6.9-35.8,12.3   c-2.6,0.8-6.1,2.2-10.6,4.2c-4.5,2-10.5,5.5-17.9,10.4l-9.7,5.7l-8.1,5.5l29.7,19.9c23.1,19.1,43.7,42.7,62,71l16.9,25.9   c3.6,3.7,7,6.7,10.4,8.9c3.4,2.2,9.6,5.9,18.5,11.1c6.7,3.9,10.5,10.2,11.4,18.8c0.5,4.6-0.3,9.9-2.3,16c-2,6.1-6.8,11.5-14.5,16.2   c-7.7,4.7-19.6,7.9-35.7,9.6c-4.7,0.5-10.8,0.8-18.5,0.8C966.2,605.3,960,605.3,955.3,605.3"></path>
    <path fill="#45B5DF" d="M635.5,685.8c-1.3,0.9-3.2,4.1-5.9,9.8   c-2.6,5.6-5.2,12.1-7.8,19.3c-1.2,3-2.2,6.3-3.2,9.9c-1,3.5-1.7,6.8-2.3,9.9c-0.6,3-1.4,4.8-2.6,5.3c-1.2,0.5-4.4,0.8-9.8,0.8h-2.9   c-3.1,0-4.9-0.2-5.6-0.6c-0.5-0.3-1.3-1.6-2.3-4.2l-5.6-15.8l-1.2-2.8l-2.7-7l-4,10.6c-3.1,8.4-5.3,13.8-6.6,16.2   c-1.3,2.5-2.7,3.7-4.1,3.7h-6c-5.6,0-9.1-0.3-10.3-0.9c-1.2-0.6-2.3-2.4-3.4-5.6l-1.7-5.1l-1.5-4.4l-3.1-9.3l-6-17.8l-0.4-0.8   c-1.4-4.8-2.2-7.5-2.5-8.2c-0.8-1.8-3.3-4.2-7.5-7.2l-1.2-0.8c-0.3-0.1-0.5-0.5-0.8-1.1c-0.4-0.9-0.6-2.1-0.6-3.6   c-0.3-3.3,0.8-5.4,3.2-6.3c2.4-0.9,8.1-1.3,17.2-1.3c5.9,0,9.8,0.3,11.7,0.8c1.9,0.5,3.3,1.4,4,2.8c0.8,1.3,1.2,2.5,1.2,3.5   c0,1.8-2.4,5.6-7.3,11.4c-0.3,0.3-0.3,0.8,0,1.7c0.1,0.6,0.8,3,2.1,7l2.7,8.4l0.2,0.6c0.9,2.3,1.5,3.9,1.8,4.8   c0.3,1,1.2,2.9,2.8,5.8l2.5-8l0.4-0.9c1.8-4.7,3-7.9,3.6-9.7c1.7-4.3,2.5-7.2,2.5-8.7c0-1.6-0.8-3.5-2.3-5.5   c-1.8-2-3.2-3.7-4.2-4.9c-0.4-0.6-0.6-1.3-0.6-2.1c0-0.9,0.4-2,1.3-3.4c0.8-1.4,2.7-2.3,5.6-2.8c2.9-0.5,8.4-0.8,16.6-0.8   c4.2,0,7,0.1,8.3,0.4c1.3,0.3,2.4,0.8,3.5,1.7c1.7,1.6,2.5,3.4,2.5,5.1c0,2.7-1.8,5.3-5.4,8c-1.3,0.9-1.9,2.3-1.9,4.4   c0,1.8,0.4,3.8,1.2,6.2c0.8,2.3,2.1,5.6,4,9.8l4.8,10.1l2.3-6.5c1.9-5.1,3.8-10.2,5.8-15.4c0.6-1.9,1-3.5,1-4.7   c0-1.5-0.6-3-1.7-4.4c-2-2.2-3.9-4.1-5.6-5.9c-0.5-0.5-0.8-1.3-0.8-2.3c0-1.5,1-3.1,3.1-4.7c0.9-0.8,2.9-1.3,6.1-1.6   c3.2-0.3,7.3-0.5,12.3-0.5c5.4,0,9.2,0.8,11.5,2.4c2.3,1.6,3.3,3.6,3.1,6.2c-0.3,1.9-0.8,3.4-1.7,4.5   C640.5,682,638.5,683.6,635.5,685.8 M721.7,738.9c-1.9,0.9-4,1.5-6.1,1.7c-8.6,0-13.9-0.7-15.9-2c-2-1.3-2.9-5-2.9-10.9l-0.2-9.1   v-10.2c-2.7-1-5.3-1.5-7.9-1.5c-2,0-3.8,0.3-5.4,0.8c-5.1,1.6-8.6,4.2-10.6,7.8c-0.4,1-0.6,1.9-0.6,2.7c0,2.4,0.9,3.7,2.7,4   l3.6,0.4l1.5,0.2l4.4-0.2l2.7,0.4c4.4,0.8,6.5,2.8,6.5,6.3c0,1.3-0.4,2.7-1.2,4.2c-3.2,6.1-10.1,9.1-20.7,9.1   c-6.4,0-11.7-2.1-15.8-6.4c-4.2-4.2-6.2-9.4-6.2-15.5c0-1.4,0.2-3.2,0.7-5.3c0.4-2.2,1.6-4.6,3.4-7.2c1.8-2.7,4.5-5,8.3-7   c3.7-2,9-3.9,15.9-5.5c2.3-0.5,4.4-0.9,6.4-1.1c2-0.3,4.3-0.4,7-0.4c2.2,0,3.8,0.1,4.8,0.2l0.6-3.8c0-3.4-1.1-6-3.2-7.9   c-2.1-1.8-4.5-2.4-7.2-1.8c-2.2,0.5-4.2,1.1-5.9,1.9c-1.8,0.8-4.9,2.3-9.2,4.7l-3.1,1.9c-1.4,0.9-2.7,1.3-3.8,1.3   c-2.8,0-5.2-1.5-7.1-4.4c-0.9-1.4-1.3-2.8-1.3-4.2c0-2.5,1.1-5,3.3-7.3c2.2-2.3,5.5-4.1,10.1-5.4c4.5-1.3,9-2.1,13.4-2.4   c4.4-0.3,7.3-0.5,8.5-0.5c8.4,0,14.6,1.8,18.8,5.5c4.1,3.7,6.2,8.9,6.2,15.8c0,0.8-0.1,1.6-0.2,2.7c-0.1,1-0.2,1.8-0.2,2.3   c-0.5,4.7-0.9,8.5-1.2,11.5c-0.3,3-0.4,5.7-0.4,8.1c0,4,0.5,7,1.6,8.9c1.1,1.9,3.4,4.4,6.8,7.4c1.5,1.4,2.3,3,2.3,4.9   C725,736.1,723.9,737.9,721.7,738.9 M766,742.5c-0.9,0.1-2.1,0.2-3.6,0.2c-12.7,0-19-7.8-19-23.3l-0.2-4.4l-0.2-29.4l-3.2-0.2   l-1.9-0.2h-4c-3.9,0-5.9-1.9-5.9-5.7c0-1,0.4-2.4,1.2-4.3c0.8-1.8,2-3.6,3.6-5.4c1-1.1,2.9-3,5.8-5.7c0.8-0.6,1.6-1.6,2.5-2.9   c0.9-1.3,2-3.1,3.2-5.4c1.2-2.3,2.2-3.9,3.1-4.8c0.8-1,1.9-1.8,3.1-2.6c1.2-0.8,2.5-1.1,3.7-1.1c3.5,0,5.7,1.7,6.7,5.1l1.1,6.3   c0.3,2.4,0.4,4.5,0.5,6.3c0.1,1.8,0.1,3.4,0.1,4.7l7.4,0.2c3.4,0,5.9,0.2,7.4,0.5c1.5,0.3,2.7,0.9,3.6,1.8c2,1.8,3,3.7,3,5.9   c0,1.8-0.6,3.3-1.9,4.5c-1.3,1.2-3.1,2.1-5.3,2.7c-2.3,0.6-6,0.9-11,0.9h-3l-0.2,11.6v13.1c0,5.1,0.1,8.2,0.4,9.3   c0.3,1.1,1.1,1.9,2.5,2.3c1.3,0.4,2.3,0.4,3,0c0.6-0.3,2.1-1.5,4.4-3.6c1.4-1.3,3-1.9,4.8-1.9c2.8,0,4.9,1.4,6.3,4.2   c0.6,1.6,1,3.2,1,4.6c0,4-1.7,7.7-5,11C776.5,739.7,771.9,741.8,766,742.5 M842.7,741c-3.6,1.4-7.6,2.1-12.1,2.1h-2.1   c-0.9,0-2.1-0.1-3.6-0.3c-1.5-0.2-2.5-0.3-3-0.5c-1.3-0.5-2.2-0.8-2.7-1c-6.5-2-11.7-5.2-15.5-9.5c-3.8-4.3-6.5-10.2-8.1-17.8   c-0.6-2.5-1-5-1-7.4v-3.5c0-1.2,0.1-2.6,0.4-4.1c0.9-7.7,3.5-14.3,7.8-19.7c4.3-5.4,9.7-9.1,16.2-11c1.5-0.5,3.6-0.9,6-1.3   c2.5-0.4,4.5-0.6,6-0.6c6.1,0,12,1.7,17.6,5c5.6,3.4,8.3,7.6,8.3,12.6c0,2.7-1.1,4.9-3.3,6.6c-1,0.9-2.3,1.6-3.7,2.2   c-1.5,0.6-3,0.7-4.7,0.5l-7.5-4.9c-0.6-0.6-1.4-1.2-2.3-1.6c-0.9-0.4-1.6-0.8-2.1-1c-1.9-0.8-3.8-1.1-5.6-1.1c-3.2,0-6,1.2-8.4,3.5   c-2.4,2.3-4,5.6-4.8,9.8l-0.4,4.6c0,6.3,1.4,11.2,4.1,14.5c2.7,3.4,6.5,5,11.2,5c2.2,0,3.8-0.1,5-0.4c0.5-0.1,1.6-0.5,3.3-1.1   c3.3-1.1,5.7-2,7-2.6c1.3-0.6,2.4-1,3.2-1.4c0.6-0.4,1.3-0.6,2.1-0.6c2.7,0,5,1.8,6.9,5.3c0.6,1.3,1,2.5,1,3.8c0,3-1.3,6-3.8,8.8   C851.6,736.7,847.8,739.1,842.7,741 M941.2,732.1c-5.5,5.1-9.7,8.5-12.7,10.4c-2.4,1.5-4.7,2.3-6.7,2.3c-2.7,0-4.9-0.8-6.5-2.3   c-1.7-1.5-2.5-3.4-2.5-5.7c0-0.9,0.2-1.7,0.6-2.5l1.7-4.2l1.7-3.2l1.3-2.5c0.6-1.1,1-3,1-5.7c0-2.3,0-4.6-0.1-6.8   c-0.1-2.3-0.1-4.6-0.1-6.8v-3l-1-8.2c-0.6-4.4-3.1-6.6-7.5-6.6c-0.5,0-1.3,0.1-2.3,0.4l-3.3,1.5c-3.1,1.9-5.2,4-6.3,6.5   c-1.1,2.4-1.7,6.3-1.7,11.6v6.3c0,4.7,0.3,7.6,0.8,8.6c0.5,1.1,2.4,2.6,5.6,4.7c2,1.3,3.6,2.7,4.6,4.4c0.5,0.9,0.8,2,0.8,3.2   c0,2.7-1.3,4.5-4,5.5l-3.3,0.6l-4.8,0.2H895l-23.6,0.2c-2.2,0-4-1.3-5.6-3.8c-0.8-1.5-1.2-3-1.2-4.4c0-1.1,0.3-2.3,1-3.6l5.3-3.2   c2.1-1.3,3.5-2.7,4-4.4c0.6-1.6,0.9-4.8,0.9-9.5c0-2.5,0-4.9-0.1-7.2c-0.1-2.3-0.1-4.5-0.1-6.6v-2.7v-0.9l0.2-25.1v-2.8v-10.4   c-0.4,0.1-1,0.2-1.9,0.2c-0.5,0-1.1-0.1-1.9-0.4c-2-0.8-3.6-1.8-4.7-3.2c-1.1-1.4-1.7-2.9-1.7-4.6c0-1,0.3-2.1,0.9-3.3   c0.6-1.2,1.9-2.8,3.9-4.7l1.9-1.7l7.5-4.9c2-1.3,3.6-2.2,4.5-2.7c1-0.6,2-1.1,3.2-1.5c1.2-0.4,2.2-0.7,3.3-0.7   c2.3,0,4.2,0.9,5.7,2.8c1.5,1.8,2.2,4.4,2.2,7.7v3.4v2.8v2.5c0,2.7,0,5.2-0.1,7.7c-0.1,2.5-0.1,4.8-0.1,7.1l-0.4,13.1l1-0.8   l3.1-2.5c6.5-4.9,12.1-7.4,16.7-7.4c1-0.1,2.6-0.1,4.6,0.2c1.4,0,2.7,0.2,3.7,0.5c1.1,0.3,2.4,0.9,3.9,1.6c3.8,1.9,6.4,4.1,7.6,6.5   c1.2,2.5,1.8,6.6,1.8,12.4v7.4v5.5v12.9l2.3,0.8c4.4,1.9,6.5,4.7,6.5,8.5c0,1.6-0.4,3.1-1.3,4.4L941.2,732.1z"></path>
    <path fill="#DF1043" d="M712.5,565.6l-8.2,0.6l-3.4-47.4c-0.3-3.7-0.4-8.3-0.3-13.8   l-0.2,0c-0.6,3.2-1.1,5.6-1.6,7l-20.3,56l-4.1,0.3l-27.9-52.2c-0.8-1.5-1.7-3.9-2.6-7.1l-0.2,0c0.5,2.8,0.9,7.4,1.4,13.8l3.3,47.3   l-8,0.6l-5-70.6l10.9-0.8l25.2,47.7c1.9,3.7,3.2,6.4,3.9,8.2l0.3,0c1.1-4,2.1-6.9,2.8-8.9l18.6-50.6l10.3-0.7L712.5,565.6z"></path>
    <g>
      <path fill="#DF1043" d="M592.2,565.6c1.8,0.4,3.5,0.7,5.3,0.9    c1.8,0.2,3.4,0.2,4.9,0.1c5.1-0.4,8.8-1.6,11.2-3.6c2.4-2.1,3.4-4.9,3.2-8.4c-0.1-1.9-0.7-3.5-1.6-4.9c-0.9-1.4-2.2-2.6-3.7-3.6    c-1.6-1.1-3.4-2.1-5.5-3c-2.1-0.9-4.4-1.9-6.8-2.9c-2.5-1.1-4.9-2.2-7.2-3.3c-2.2-1.1-4.2-2.4-5.9-3.8c-1.7-1.4-3-3.1-4.1-5    c-1-1.9-1.7-4.1-1.8-6.8c-0.2-3.2,0.3-6.1,1.5-8.6c1.2-2.5,3-4.6,5.1-6.3c2.2-1.7,4.7-3,7.6-4c2.9-1,5.9-1.6,8.9-1.8    c7-0.5,12.1,0,15.4,1.4l0.7,9.3c-4.4-2.6-9.8-3.7-16.4-3.2c-1.8,0.1-3.6,0.4-5.4,0.9c-1.8,0.5-3.3,1.2-4.7,2.2    c-1.4,1-2.4,2.1-3.2,3.6c-0.8,1.4-1.1,3.1-1,5c0.1,1.8,0.6,3.3,1.3,4.6c0.8,1.3,1.8,2.4,3.2,3.4c1.4,1,3.1,1.9,5,2.8    c2,0.9,4.2,1.8,6.8,2.9c2.6,1.1,5.1,2.2,7.5,3.4c2.4,1.2,4.5,2.6,6.3,4.2c0.3,0.2,0.5,0.5,0.7,0.7c5.8-84,15.4-185.2,33.4-239.1    c-22.9,15.3-48.2,24.6-78.9,27c-29.2,2.3-54.6-5-66.6-9.5c29,55,59.2,160.9,80.8,244.2C589.6,564.9,590.9,565.3,592.2,565.6z"></path>
      <path fill="#DF1043" d="M611.1,572.5c-3,0.9-6.1,1.4-9.5,1.7c-1.1,0.1-2.5,0.1-4.2,0    c-1.6-0.1-3.3-0.2-5.1-0.4c-0.6-0.1-1.2-0.2-1.7-0.3c6.2,24.1,11.6,46,16,63.8c0,0,7,0,7.1,0c1.1-18.5,2.4-41.8,4.1-67.8    C615.9,570.7,613.6,571.7,611.1,572.5z"></path>
    </g>
    <path fill="#DF1043" d="M567.4,569.9c-6.8,4.5-14.5,7.1-23.2,7.7   c-10.1,0.7-18.4-2-25.1-8c-6.7-6-10.4-14.4-11.2-25.1c-0.8-10.9,2.1-20.1,8.5-27.6c6.4-7.5,14.9-11.6,25.5-12.4   c7.7-0.5,14.2,0.3,19.6,2.4l0.6,9.2c-6-3.2-12.9-4.5-20.7-4c-7.9,0.6-14.2,3.7-18.9,9.5c-4.7,5.8-6.7,13-6.1,21.7   c0.6,8.9,3.5,15.8,8.5,20.5c5.1,4.8,11.6,6.9,19.7,6.3c5.5-0.4,10.2-1.8,14.1-4.3l-1.4-19.8L542,547l-0.5-7.5l23.7-1.7L567.4,569.9   z"></path>
  </g>
</svg>
